<?xml version="1.0" encoding="UTF-8" standalone="no"?>
<!DOCTYPE svg PUBLIC "-//W3C//DTD SVG 1.1//EN"
 "http://www.w3.org/Graphics/SVG/1.1/DTD/svg11.dtd">
<!-- Generated by graphviz version 2.40.1 (20161225.0304)
 -->
<!-- Pages: 1 -->
<svg width="739pt" height="432pt"
 viewBox="0.00 0.00 739.19 432.34" xmlns="http://www.w3.org/2000/svg" xmlns:xlink="http://www.w3.org/1999/xlink">
<g id="graph0" class="graph" transform="scale(1 1) rotate(0) translate(4 428.3375)">
<polygon fill="#ffffff" stroke="transparent" points="-4,4 -4,-428.3375 735.1944,-428.3375 735.1944,4 -4,4"/>
<text text-anchor="middle" x="365.5972" y="-8.2" font-family="Times,serif" font-size="14.00" fill="#000000">State Machine</text>
<!-- user -->
<g id="node1" class="node">
<title>user</title>
<path fill="#e9967a" stroke="#ff0000" d="M46,-251.5375C46,-251.5375 16,-251.5375 16,-251.5375 10,-251.5375 4,-245.5375 4,-239.5375 4,-239.5375 4,-227.5375 4,-227.5375 4,-221.5375 10,-215.5375 16,-215.5375 16,-215.5375 46,-215.5375 46,-215.5375 52,-215.5375 58,-221.5375 58,-227.5375 58,-227.5375 58,-239.5375 58,-239.5375 58,-245.5375 52,-251.5375 46,-251.5375"/>
<path fill="none" stroke="#ff0000" d="M50,-255.5375C50,-255.5375 12,-255.5375 12,-255.5375 6,-255.5375 0,-249.5375 0,-243.5375 0,-243.5375 0,-223.5375 0,-223.5375 0,-217.5375 6,-211.5375 12,-211.5375 12,-211.5375 50,-211.5375 50,-211.5375 56,-211.5375 62,-217.5375 62,-223.5375 62,-223.5375 62,-243.5375 62,-243.5375 62,-249.5375 56,-255.5375 50,-255.5375"/>
<text text-anchor="middle" x="31" y="-229.3375" font-family="Times,serif" font-size="14.00" fill="#000000">user</text>
</g>
<!-- state1 -->
<g id="node2" class="node">
<title>state1</title>
<path fill="#ffffff" stroke="#000000" d="M409.3436,-391.5375C409.3436,-391.5375 379.3436,-391.5375 379.3436,-391.5375 373.3436,-391.5375 367.3436,-385.5375 367.3436,-379.5375 367.3436,-379.5375 367.3436,-367.5375 367.3436,-367.5375 367.3436,-361.5375 373.3436,-355.5375 379.3436,-355.5375 379.3436,-355.5375 409.3436,-355.5375 409.3436,-355.5375 415.3436,-355.5375 421.3436,-361.5375 421.3436,-367.5375 421.3436,-367.5375 421.3436,-379.5375 421.3436,-379.5375 421.3436,-385.5375 415.3436,-391.5375 409.3436,-391.5375"/>
<text text-anchor="middle" x="394.3436" y="-369.3375" font-family="Times,serif" font-size="14.00" fill="#000000">state1</text>
</g>
<!-- user&#45;&gt;state1 -->
<g id="edge1" class="edge">
<title>user&#45;&gt;state1</title>
<path fill="none" stroke="#000000" d="M35.6648,-255.776C43.5944,-291.1965 60.7289,-357.8382 80,-371.5375 163.6384,-430.9938 293.9976,-404.1877 357.3224,-385.7626"/>
<polygon fill="#000000" stroke="#000000" points="358.6846,-389.008 367.2554,-382.7797 356.6713,-382.3038 358.6846,-389.008"/>
<text text-anchor="middle" x="178.7812" y="-411.7375" font-family="Times,serif" font-size="14.00" fill="#000000">advance [is_going_to_state1]</text>
</g>
<!-- state2 -->
<g id="node3" class="node">
<title>state2</title>
<path fill="#ffffff" stroke="#000000" d="M409.3436,-311.5375C409.3436,-311.5375 379.3436,-311.5375 379.3436,-311.5375 373.3436,-311.5375 367.3436,-305.5375 367.3436,-299.5375 367.3436,-299.5375 367.3436,-287.5375 367.3436,-287.5375 367.3436,-281.5375 373.3436,-275.5375 379.3436,-275.5375 379.3436,-275.5375 409.3436,-275.5375 409.3436,-275.5375 415.3436,-275.5375 421.3436,-281.5375 421.3436,-287.5375 421.3436,-287.5375 421.3436,-299.5375 421.3436,-299.5375 421.3436,-305.5375 415.3436,-311.5375 409.3436,-311.5375"/>
<text text-anchor="middle" x="394.3436" y="-289.3375" font-family="Times,serif" font-size="14.00" fill="#000000">state2</text>
</g>
<!-- user&#45;&gt;state2 -->
<g id="edge2" class="edge">
<title>user&#45;&gt;state2</title>
<path fill="none" stroke="#000000" d="M43.0688,-255.6913C51.5164,-268.7397 64.1219,-284.1043 80,-291.5375 128.052,-314.0326 284.4472,-303.5104 356.8878,-297.1488"/>
<polygon fill="#000000" stroke="#000000" points="357.2973,-300.6262 366.9437,-296.2448 356.6704,-293.6543 357.2973,-300.6262"/>
<text text-anchor="middle" x="178.7812" y="-308.7375" font-family="Times,serif" font-size="14.00" fill="#000000">advance [is_going_to_state2]</text>
</g>
<!-- cat -->
<g id="node4" class="node">
<title>cat</title>
<path fill="#ffffff" stroke="#000000" d="M409.3436,-211.5375C409.3436,-211.5375 379.3436,-211.5375 379.3436,-211.5375 373.3436,-211.5375 367.3436,-205.5375 367.3436,-199.5375 367.3436,-199.5375 367.3436,-187.5375 367.3436,-187.5375 367.3436,-181.5375 373.3436,-175.5375 379.3436,-175.5375 379.3436,-175.5375 409.3436,-175.5375 409.3436,-175.5375 415.3436,-175.5375 421.3436,-181.5375 421.3436,-187.5375 421.3436,-187.5375 421.3436,-199.5375 421.3436,-199.5375 421.3436,-205.5375 415.3436,-211.5375 409.3436,-211.5375"/>
<text text-anchor="middle" x="394.3436" y="-189.3375" font-family="Times,serif" font-size="14.00" fill="#000000">cat</text>
</g>
<!-- user&#45;&gt;cat -->
<g id="edge3" class="edge">
<title>user&#45;&gt;cat</title>
<path fill="none" stroke="#000000" d="M62.2048,-231.396C109.0625,-228.0349 200.3442,-220.9237 277.5624,-211.5375 304.2282,-208.2962 334.1689,-203.6613 357.0575,-199.9065"/>
<polygon fill="#000000" stroke="#000000" points="357.7477,-203.3399 367.0406,-198.2514 356.6028,-196.4342 357.7477,-203.3399"/>
<text text-anchor="middle" x="178.7812" y="-233.7375" font-family="Times,serif" font-size="14.00" fill="#000000">advance [can_see_cat]</text>
</g>
<!-- weather -->
<g id="node5" class="node">
<title>weather</title>
<path fill="#ffffff" stroke="#000000" d="M412.646,-154.5375C412.646,-154.5375 376.0412,-154.5375 376.0412,-154.5375 370.0412,-154.5375 364.0412,-148.5375 364.0412,-142.5375 364.0412,-142.5375 364.0412,-130.5375 364.0412,-130.5375 364.0412,-124.5375 370.0412,-118.5375 376.0412,-118.5375 376.0412,-118.5375 412.646,-118.5375 412.646,-118.5375 418.646,-118.5375 424.646,-124.5375 424.646,-130.5375 424.646,-130.5375 424.646,-142.5375 424.646,-142.5375 424.646,-148.5375 418.646,-154.5375 412.646,-154.5375"/>
<text text-anchor="middle" x="394.3436" y="-132.3375" font-family="Times,serif" font-size="14.00" fill="#000000">weather</text>
</g>
<!-- user&#45;&gt;weather -->
<g id="edge4" class="edge">
<title>user&#45;&gt;weather</title>
<path fill="none" stroke="#000000" d="M39.0692,-211.3945C46.7239,-193.8633 60.0501,-170.4448 80,-158.7375 125.3103,-132.1479 279.5548,-132.9594 353.7841,-135.0239"/>
<polygon fill="#000000" stroke="#000000" points="354.0324,-138.5328 364.1329,-135.3345 354.2424,-131.536 354.0324,-138.5328"/>
<text text-anchor="middle" x="178.7812" y="-162.7375" font-family="Times,serif" font-size="14.00" fill="#000000">advance [is_toweather]</text>
</g>
<!-- state1&#45;&gt;user -->
<g id="edge5" class="edge">
<title>state1&#45;&gt;user</title>
<path fill="none" stroke="#000000" d="M367.0634,-367.6827C343.4539,-362.7425 308.3573,-355.7021 277.5624,-350.7375 233.8681,-343.6933 116.4244,-350.6786 80,-325.5375 59.5218,-311.4029 46.9059,-285.9112 39.614,-265.3401"/>
<polygon fill="#000000" stroke="#000000" points="42.8963,-264.1169 36.451,-255.7081 36.2457,-266.3009 42.8963,-264.1169"/>
<text text-anchor="middle" x="178.7812" y="-354.7375" font-family="Times,serif" font-size="14.00" fill="#000000">advance [is_going_back] | go_back</text>
</g>
<!-- state2&#45;&gt;user -->
<g id="edge6" class="edge">
<title>state2&#45;&gt;user</title>
<path fill="none" stroke="#000000" d="M367.0935,-287.4884C343.5027,-282.4267 308.4169,-275.3172 277.5624,-270.7375 190.2556,-257.7788 166.1758,-269.6198 80,-250.5375 77.331,-249.9465 74.6059,-249.2566 71.8755,-248.4995"/>
<polygon fill="#000000" stroke="#000000" points="72.6416,-245.0745 62.0562,-245.5209 70.6096,-251.7731 72.6416,-245.0745"/>
<text text-anchor="middle" x="178.7812" y="-274.7375" font-family="Times,serif" font-size="14.00" fill="#000000">advance [is_going_back] | go_back</text>
</g>
<!-- cat&#45;&gt;user -->
<g id="edge7" class="edge">
<title>cat&#45;&gt;user</title>
<path fill="none" stroke="#000000" d="M367.1545,-190.8171C300.7845,-184.5705 132.1187,-171.1805 80,-190.7375 71.791,-193.8178 64.0551,-198.9653 57.2601,-204.6431"/>
<polygon fill="#000000" stroke="#000000" points="54.7998,-202.1494 49.7436,-211.4599 59.5023,-207.3346 54.7998,-202.1494"/>
<text text-anchor="middle" x="178.7812" y="-194.7375" font-family="Times,serif" font-size="14.00" fill="#000000">advance [is_going_back] | go_back</text>
</g>
<!-- likecat -->
<g id="node6" class="node">
<title>likecat</title>
<path fill="#ffffff" stroke="#000000" d="M719.1944,-114.5375C719.1944,-114.5375 689.1944,-114.5375 689.1944,-114.5375 683.1944,-114.5375 677.1944,-108.5375 677.1944,-102.5375 677.1944,-102.5375 677.1944,-90.5375 677.1944,-90.5375 677.1944,-84.5375 683.1944,-78.5375 689.1944,-78.5375 689.1944,-78.5375 719.1944,-78.5375 719.1944,-78.5375 725.1944,-78.5375 731.1944,-84.5375 731.1944,-90.5375 731.1944,-90.5375 731.1944,-102.5375 731.1944,-102.5375 731.1944,-108.5375 725.1944,-114.5375 719.1944,-114.5375"/>
<text text-anchor="middle" x="704.1944" y="-92.3375" font-family="Times,serif" font-size="14.00" fill="#000000">likecat</text>
</g>
<!-- cat&#45;&gt;likecat -->
<g id="edge8" class="edge">
<title>cat&#45;&gt;likecat</title>
<path fill="none" stroke="#000000" d="M421.625,-185.3522C441.4753,-179.3721 468.9904,-171.0325 493.1248,-163.5375 554.3088,-144.5366 625.2736,-121.8832 667.3607,-108.3835"/>
<polygon fill="#000000" stroke="#000000" points="668.4542,-111.7084 676.9062,-105.3198 666.315,-105.0433 668.4542,-111.7084"/>
<text text-anchor="middle" x="585.1596" y="-159.7375" font-family="Times,serif" font-size="14.00" fill="#000000">advance [can_answer_cat]</text>
</g>
<!-- weather&#45;&gt;user -->
<g id="edge10" class="edge">
<title>weather&#45;&gt;user</title>
<path fill="none" stroke="#000000" d="M363.8669,-128.5741C340.4521,-122.8843 307.2074,-115.7276 277.5624,-112.7375 233.8813,-108.3317 116.4139,-88.2125 80,-112.7375 50.9102,-132.3297 39.0834,-172.4683 34.2793,-201.0984"/>
<polygon fill="#000000" stroke="#000000" points="30.8058,-200.6624 32.8081,-211.0663 37.7308,-201.6845 30.8058,-200.6624"/>
<text text-anchor="middle" x="178.7812" y="-117.7375" font-family="Times,serif" font-size="14.00" fill="#000000">advance [is_going_back] | go_back</text>
</g>
<!-- likecat&#45;&gt;user -->
<g id="edge9" class="edge">
<title>likecat&#45;&gt;user</title>
<path fill="none" stroke="#000000" d="M677.1562,-86.5914C583.7519,-54.1088 270.0133,39.1564 80,-97.5375 62.8019,-109.9097 46.9758,-165.116 38.1923,-201.2763"/>
<polygon fill="#000000" stroke="#000000" points="34.701,-200.831 35.8025,-211.3685 41.5126,-202.4441 34.701,-200.831"/>
<text text-anchor="middle" x="394.3436" y="-42.7375" font-family="Times,serif" font-size="14.00" fill="#000000">advance [is_going_back] | go_back</text>
</g>
</g>
</svg>
